<svg xmlns="http://www.w3.org/2000/svg" width="56.569" height="56.569" viewBox="0 0 56.569 56.569"><defs><style>.a,.d{fill:none;}.a{stroke:#d6a62b;}.b{fill:#fff;}.c{stroke:none;}</style></defs><g class="a" transform="translate(28.284) rotate(45)"><rect class="c" width="40" height="40" rx="11"/><rect class="d" x="0.5" y="0.5" width="39" height="39" rx="10.5"/></g><g transform="translate(15.657 18)"><path class="b" d="M21.177,13.385a20.361,20.361,0,0,0-5.158-1.621,15.123,15.123,0,0,0-.661,1.372,18.938,18.938,0,0,0-5.716,0,14.662,14.662,0,0,0-.669-1.372,20.294,20.294,0,0,0-5.162,1.625A21.631,21.631,0,0,0,.106,27.874a20.621,20.621,0,0,0,6.326,3.241,15.732,15.732,0,0,0,1.355-2.231,13.321,13.321,0,0,1-2.133-1.038c.179-.133.354-.271.523-.414a14.578,14.578,0,0,0,12.647,0c.171.143.346.281.523.414a13.288,13.288,0,0,1-2.137,1.04,15.662,15.662,0,0,0,1.355,2.231,20.58,20.58,0,0,0,6.33-3.243A21.61,21.61,0,0,0,21.177,13.385ZM8.347,24.957A2.427,2.427,0,0,1,6.1,22.4a2.414,2.414,0,0,1,2.248-2.559A2.4,2.4,0,0,1,10.595,22.4,2.411,2.411,0,0,1,8.347,24.957Zm8.306,0A2.427,2.427,0,0,1,14.405,22.4a2.414,2.414,0,0,1,2.248-2.559A2.4,2.4,0,0,1,18.9,22.4,2.412,2.412,0,0,1,16.653,24.957Z" transform="translate(0 -11.765)"/></g></svg>