<svg xmlns="http://www.w3.org/2000/svg" width="56.569" height="56.569" viewBox="0 0 56.569 56.569"><defs><style>.a,.d{fill:none;}.a{stroke:#d6a62b;}.b{fill:#fff;}.c{stroke:none;}</style></defs><g class="a" transform="translate(28.284 0) rotate(45)"><rect class="c" width="40" height="40" rx="11"/><rect class="d" x="0.5" y="0.5" width="39" height="39" rx="10.5"/></g><g transform="translate(16.891 18.395)"><path class="b" d="M22.625,6.371c.015.212.015.425.015.639A13.968,13.968,0,0,1,8.576,21.073v0A13.993,13.993,0,0,1,1,18.854a10.054,10.054,0,0,0,1.176.071,9.925,9.925,0,0,0,6.139-2.12A4.949,4.949,0,0,1,3.7,13.373a4.927,4.927,0,0,0,2.232-.085A4.943,4.943,0,0,1,1.964,8.443V8.38A4.911,4.911,0,0,0,4.207,9a4.949,4.949,0,0,1-1.53-6.6A14.029,14.029,0,0,0,12.864,7.563a4.947,4.947,0,0,1,8.423-4.508,9.918,9.918,0,0,0,3.139-1.2,4.961,4.961,0,0,1-2.173,2.734,9.83,9.83,0,0,0,2.838-.778A10.041,10.041,0,0,1,22.625,6.371Z" transform="translate(-1 -1.497)"/></g></svg>